<?xml version="1.0" encoding="utf-8"?>
<!-- Generator: Adobe Illustrator 16.0.0, SVG Export Plug-In . SVG Version: 6.00 Build 0)  -->
<!DOCTYPE svg PUBLIC "-//W3C//DTD SVG 1.1//EN" "http://www.w3.org/Graphics/SVG/1.1/DTD/svg11.dtd">
<svg xml:space="preserve" enable-background="new 0 0 1695.72 509.484" viewBox="0 0 1695.72 509.484" height="509.484px" width="1695.72px" y="0px" x="0px" xmlns:xlink="http://www.w3.org/1999/xlink" xmlns="http://www.w3.org/2000/svg" id="bonifati.us-logo" version="1.1">
<g fill="#C13327">
	<path d="M109.512,396.984h-84.24v-226.8h57.996c13.608,0,25.758,0.759,36.45,2.268
		c10.692,1.514,19.764,4.374,27.216,8.586c7.452,4.212,13.122,10.1,17.01,17.658c3.888,7.563,5.832,17.284,5.832,29.16
		c0,10.586-1.407,19.658-4.212,27.217c-2.81,7.563-7.776,14.473-14.904,20.736c13.82,5.4,23.814,12.367,29.97,20.896
		c6.156,8.537,9.234,19.604,9.234,33.211c0,13.178-2.323,24.088-6.966,32.725c-4.647,8.641-10.748,15.5-18.306,20.574
		c-7.563,5.076-16.149,8.641-25.758,10.691C129.22,395.96,119.445,396.984,109.512,396.984z M97.524,203.231H63.18v58.967h39.852
		c20.088,0,30.132-9.826,30.132-29.483c0-11.664-2.972-19.491-8.91-23.49C118.311,205.231,109.4,203.231,97.524,203.231z
		 M107.892,293.304H63.18v70.631h38.232c16.2,0,28.4-2.48,36.612-7.451c8.207-4.967,12.312-14.039,12.312-27.217
		C150.336,305.291,136.187,293.304,107.892,293.304z"/>
	<path d="M238.46,316.632c0-11.664,1.888-22.625,5.67-32.887c3.777-10.257,9.178-19.116,16.2-26.568
		c7.017-7.451,15.552-13.334,25.596-17.658c10.044-4.318,21.222-6.479,33.534-6.479s23.434,2.161,33.372,6.479
		c9.933,4.324,18.412,10.262,25.434,17.82c7.017,7.563,12.474,16.418,16.362,26.568c3.888,10.154,5.832,21.061,5.832,32.725
		c0,11.662-1.894,22.572-5.67,32.723c-3.782,10.156-9.184,19.01-16.2,26.568c-7.021,7.563-15.552,13.502-25.596,17.82
		s-21.222,6.48-33.534,6.48c-12.53,0-23.763-2.162-33.696-6.48c-9.938-4.318-18.417-10.207-25.434-17.658
		c-7.022-7.451-12.423-16.25-16.2-26.406C240.349,339.529,238.46,328.513,238.46,316.632z M276.044,316.47
		c0,16.148,3.833,28.961,11.502,38.439c7.665,9.477,18.306,14.209,31.914,14.209s24.244-4.732,31.914-14.209
		c7.665-9.479,11.502-22.291,11.502-38.439c0-16.15-3.837-28.908-11.502-38.273c-7.67-9.365-18.306-14.053-31.914-14.053
		s-24.25,4.688-31.914,14.053C279.877,287.562,276.044,300.32,276.044,316.47z"/>
	<path d="M601.34,396.984h-36.612v-87.156c0-15.766-2.754-27.322-8.262-34.668
		c-5.508-7.341-14.418-11.016-26.73-11.016c-15.122,0-26.68,5.295-34.668,15.875v116.965h-36.612V235.956h33.048l1.296,11.987
		c12.524-9.932,26.132-14.903,40.824-14.903c45.143,0,67.716,25.596,67.716,76.788V396.984z"/>
	<path d="M704.369,208.091h-36.936v-37.908h36.936V208.091z M704.369,396.984h-36.936V235.956h36.936V396.984z"/>
	<path d="M856.647,265.763h-37.908v131.221h-36.612V265.763h-24.624l3.888-29.808h20.736v-38.88
		c0-6.044,0.86-11.714,2.592-17.01c1.727-5.291,4.212-9.882,7.452-13.77c3.24-3.888,7.234-6.91,11.988-9.072
		c4.749-2.157,10.15-3.24,16.2-3.24c5.396,0,11.016,0.218,16.848,0.643c5.832,0.425,11.988,1.068,18.468,1.924l-3.564,30.481
		c-4.971-1.296-11.016-1.944-18.144-1.944c-3.24,0-5.832,0.385-7.776,1.144c-1.944,0.759-3.514,2.228-4.698,4.399
		c-1.189,2.177-1.944,5.219-2.268,9.133c-0.324,3.913-0.486,8.91-0.486,14.995v21.197h37.908V265.763z"/>
	<path d="M1046.833,370.091l-3.564,30.133h-11.016c-18.145,0-30.674-6.693-37.585-20.088
		c-11.664,13.395-28.081,20.088-49.248,20.088c-6.914,0-13.283-1.135-19.115-3.402s-10.854-5.508-15.066-9.721
		c-4.212-4.211-7.508-9.285-9.882-15.229c-2.379-5.938-3.564-12.473-3.564-19.602c0-11.016,3.185-20.139,9.558-27.377
		c6.369-7.234,14.2-13.066,23.489-17.496c9.285-4.426,19.279-7.559,29.971-9.396c10.691-1.832,20.463-2.861,29.322-3.078
		c-0.218-11.016-2.703-18.736-7.452-23.166c-4.754-4.424-12.636-6.643-23.652-6.643c-13.177,0-27.651,4.324-43.416,12.961
		l-3.888-29.809c18.574-10.15,37.69-15.228,57.348-15.228c19.44,0,33.965,5.346,43.578,16.038
		c9.609,10.691,14.419,28.244,14.419,52.65v40.176c0,6.049,0.162,10.91,0.484,14.58c0.324,3.676,1.023,6.535,2.107,8.586
		c1.078,2.055,2.643,3.402,4.697,4.049c2.051,0.648,4.805,0.973,8.262,0.973H1046.833z M990.132,357.132v-37.262
		c-16.2,0.648-29.271,3.514-39.204,8.586c-9.938,5.078-14.904,12.475-14.904,22.195c0,14.043,7.559,21.059,22.681,21.059
		c5.184,0,10.691-1.295,16.523-3.887S986.027,361.667,990.132,357.132z" fill="#FFFFFF"/>
	<path d="M1200.425,359.634l-4.5,41.85h-38.7c-9.899,0-18.604-1.506-26.1-4.5
		c-7.502-2.996-13.725-7.045-18.675-12.15c-4.95-5.098-8.628-11.096-11.025-18c-2.404-6.898-3.6-14.4-3.6-22.5v-129.6h-33.75
		l4.5-41.4h29.25v-50.85l50.85-5.4v56.25h52.2v41.4h-52.2v106.2c0,9.303,0.296,16.58,0.9,21.826c0.598,5.252,2.095,9.076,4.5,11.475
		c2.397,2.404,6.146,3.902,11.25,4.5c5.098,0.604,12.149,0.9,21.149,0.9H1200.425z" fill="#FFFFFF"/>
	<path d="M1276.149,208.091h-36.936v-37.908h36.936V208.091z M1276.149,396.984h-36.936V235.956h36.936V396.984z" fill="#FFFFFF"/>
	<path d="M1481.563,396.984h-33.696l-1.62-11.988c-10.804,10.154-23.652,15.229-38.556,15.229
		c-43.634,0-65.448-25.162-65.448-75.492v-88.776h36.612v86.396c0,16.242,2.698,28.092,8.1,35.564
		c5.396,7.473,13.932,11.203,25.596,11.203c14.256,0,25.055-4.977,32.4-14.939V235.956h36.612V396.984z"/>
	<path d="M1595.284,400.224c-23.976,0-42.231-4.213-54.756-12.637l3.563-32.4c2.593,1.945,5.776,3.889,9.559,5.832
		c3.776,1.945,7.882,3.676,12.312,5.184c4.425,1.514,9.072,2.754,13.933,3.727c4.859,0.973,9.558,1.459,14.094,1.459
		c9.284,0,16.089-1.727,20.412-5.186c4.318-3.451,6.479-7.881,6.479-13.283c0-5.184-2.323-9.502-6.966-12.961
		c-4.647-3.451-10.262-6.479-16.848-9.07c-6.592-2.594-13.446-5.023-20.574-7.291s-13.071-4.805-17.82-7.613
		c-10.585-6.264-15.876-17.061-15.876-32.4c0-6.48,1.134-12.799,3.402-18.954c2.268-6.155,5.832-11.553,10.692-16.2
		c4.859-4.643,11.016-8.368,18.468-11.178c7.452-2.805,16.361-4.212,26.729-4.212c19.653,0,35.853,3.888,48.601,11.664
		l-3.564,31.752c-12.1-10.798-26.355-16.2-42.768-16.2c-8.212,0-14.96,1.514-20.25,4.536c-5.296,3.027-7.938,7.776-7.938,14.256
		c0,4.323,1.022,7.776,3.078,10.368c2.051,2.592,4.805,4.754,8.262,6.48c3.453,1.73,7.396,3.133,11.826,4.211
		c4.425,1.084,9.017,2.268,13.771,3.564c29.808,7.563,44.712,23.869,44.712,48.924c0,5.184-0.76,10.529-2.269,16.039
		c-1.514,5.508-4.536,10.641-9.071,15.389c-4.536,4.754-10.91,8.643-19.116,11.664
		C1619.148,398.71,1608.457,400.224,1595.284,400.224z"/>
</g>
<path d="M905.622,434.978c-16.5,0-30-13.5-30-30V30c0-16.5,13.5-30,30-30H1280.6c16.5,0,30,13.5,30,30v374.978
	c0,16.5-13.5,30-30,30 M1280.6,434.978l-131.925-0.08V214.733h52.2v-41.4h-52.2v-56.25l-50.85,5.4v50.85h-29.25l-4.5,41.4h33.75
	v220.165l-192.204,0.08" fill="#C13327"/>
<g>
	<path d="M1046.833,370.091l-3.564,30.133h-11.016c-18.145,0-30.674-6.693-37.585-20.088
		c-11.664,13.395-28.081,20.088-49.248,20.088c-6.914,0-13.283-1.135-19.115-3.402s-10.854-5.508-15.066-9.721
		c-4.212-4.211-7.508-9.285-9.882-15.229c-2.379-5.938-3.564-12.473-3.564-19.602c0-11.016,3.185-20.139,9.558-27.377
		c6.369-7.234,14.2-13.066,23.489-17.496c9.285-4.426,19.279-7.559,29.971-9.396c10.691-1.832,20.463-2.861,29.322-3.078
		c-0.218-11.016-2.703-18.736-7.452-23.166c-4.754-4.424-12.636-6.643-23.652-6.643c-13.177,0-27.651,4.324-43.416,12.961
		l-3.888-29.809c18.574-10.15,37.69-15.228,57.348-15.228c19.44,0,33.965,5.346,43.578,16.038
		c9.609,10.691,14.419,28.244,14.419,52.65v40.176c0,6.049,0.162,10.91,0.484,14.58c0.324,3.676,1.023,6.535,2.107,8.586
		c1.078,2.055,2.643,3.402,4.697,4.049c2.051,0.648,4.805,0.973,8.262,0.973H1046.833z M990.132,357.132v-37.262
		c-16.2,0.648-29.271,3.514-39.204,8.586c-9.938,5.078-14.904,12.475-14.904,22.195c0,14.043,7.559,21.059,22.681,21.059
		c5.184,0,10.691-1.295,16.523-3.887S986.027,361.667,990.132,357.132z" fill="#FFFFFF"/>
	<path d="M1276.149,208.091h-36.936v-37.908h36.936V208.091z M1276.149,396.984h-36.936V235.956h36.936V396.984z" fill="#FFFFFF"/>
</g>
<g>
	<defs>
		<path d="M905.622,434.978c-16.5,0-30-13.5-30-30V30c0-16.5,13.5-30,30-30H1280.6c16.5,0,30,13.5,30,30v374.978
			c0,16.5-13.5,30-30,30 M1280.6,434.978l-131.925-0.08V214.733h52.2v-41.4h-52.2v-56.25l-50.85,5.4v50.85h-29.25l-4.5,41.4h33.75
			v220.165l-192.204,0.08" id="SVGID_1_"/>
	</defs>
	<clipPath id="SVGID_2_">
		<use overflow="visible" xlink:href="#SVGID_1_"/>
	</clipPath>
	<path d="M1457.594,106.749
		c0-142.775-115.742-258.518-258.518-258.518c-101.662,0-189.618,58.682-231.844,144.02
		c-17.077,34.512-26.675,73.384-26.675,114.498c0,142.775,115.743,258.518,258.519,258.518c42.514,0,82.63-10.263,118.008-28.444
		C1400.518,293.941,1457.594,207.01,1457.594,106.749z" stroke-miterlimit="10" stroke-width="7" stroke="#FFFFFF" fill="none" clip-path="url(#SVGID_2_)"/>
	<path d="M1430.926,106.749
		c0-128.047-103.803-231.85-231.85-231.85c-91.175,0-170.058,52.628-207.927,129.164c-15.316,30.952-23.924,65.814-23.924,102.686
		c0,128.048,103.804,231.85,231.851,231.85c38.128,0,74.106-9.204,105.835-25.51C1379.738,274.63,1430.926,196.667,1430.926,106.749
		z" stroke-miterlimit="10" stroke-width="7" stroke="#FFFFFF" fill="none" clip-path="url(#SVGID_2_)"/>
	<path d="M1482.041,106.749
		c0-155.538-126.688-281.626-282.964-281.626c-111.275,0-207.548,63.927-253.768,156.895
		c-18.692,37.597-29.196,79.944-29.196,124.732c0,155.538,126.688,281.628,282.964,281.628c46.534,0,90.443-11.182,129.168-30.988
		C1419.567,310.674,1482.041,215.973,1482.041,106.749z" stroke-miterlimit="10" stroke-width="7" stroke="#FFFFFF" fill="none" clip-path="url(#SVGID_2_)"/>
</g>
</svg>